<svg width="1744" height="1719" viewBox="0 0 1744 1719" fill="none" xmlns="http://www.w3.org/2000/svg">
<path d="M1084.91 1072.72C985.844 1369.63 721.203 1461.32 581.271 1092.54C562.028 1041.83 612.342 1022.95 647.529 1000.63C671.631 985.348 684.292 972.093 682.824 958.426C675.896 893.951 645.903 714.572 645.903 714.572L642.852 708.793C642.852 708.793 643.583 707.173 640.712 710.038C637.72 713.025 630.819 744.214 603.622 744.214C579.238 744.214 554.483 733.314 542.636 657.886C538.349 630.589 540.782 559.025 570.989 546.102C583.472 540.763 594.988 538.854 606.222 545.263C617.456 551.671 593.26 523.357 718.209 419.232C799.427 351.549 927.717 341.629 979.484 353.057C1031.25 364.484 1083.02 389.824 1105.91 443.483C1133.69 508.593 1080.03 557.759 1091.82 706.042C1089.67 759.617 1092.74 877.198 945.314 916.607C917.313 924.093 926 965 968 975C1035 996 1084.96 1047.27 1084.96 1072.86" fill="white"/>
<path fill-rule="evenodd" clip-rule="evenodd" d="M1084.94 611.2L1085.1 609.806C1089.24 573.399 1093.26 538.118 1112.24 506.429C1118.7 510.85 1117.95 516.452 1115.93 521.643C1096.01 572.846 1097.84 626.04 1099.67 679.206C1099.83 683.863 1099.99 688.519 1100.14 693.174C1102.22 759.601 1085.65 819.988 1041.35 870.736C1025.98 888.348 1005.63 900.464 984.854 911.045C963.515 921.912 959.03 931.132 965.687 954.599C965.93 955.455 966.229 956.315 966.529 957.178C967.892 961.1 969.273 965.073 965.487 968.95C960.965 973.58 956.026 972.259 950.683 970.83C950.48 970.776 950.277 970.721 950.074 970.667C899.733 957.241 854.697 933.154 813.056 902.393C807.139 898.023 802.272 892.061 797.561 886.29L797.561 886.29L797.256 885.916C794.776 882.879 794.338 878.141 797.807 875.462C801.054 872.955 803.609 875.011 806.452 877.298C806.815 877.59 807.182 877.886 807.556 878.176C830.027 895.614 854.773 907.063 883.768 909.943C897.176 911.276 910.448 910.784 923.708 910.293H923.708H923.709C931.17 910.017 938.626 909.741 946.101 909.79C956.34 909.857 964.752 905.107 972.761 900.584C973.712 900.047 974.658 899.513 975.601 898.99C1003.45 883.545 1029.88 866.229 1047.84 838.331C1063.92 813.331 1073.67 786.1 1079.4 757.443C1086.65 721.27 1085.99 684.701 1085.32 647.621C1085.11 635.536 1084.89 623.397 1084.94 611.2ZM581.684 535.824C603.577 534.064 615.771 547.033 626.037 562.053C638.664 580.526 645.39 601.465 648.37 623.572C648.87 627.28 649.389 631.223 647.152 634.856C642.737 635.45 642.319 631.946 642.252 629.317C641.696 608.644 632.526 590.61 623.308 573.156C616.73 560.704 607.059 548.64 591.943 545.577C574.71 542.084 558.858 557.566 551.067 577.842C536.636 615.398 539.029 652.36 552.455 688.759C558.33 704.687 565.648 720.913 580.303 732.026C595.142 743.28 613.008 741.295 623.903 726.349C624.526 725.495 625.184 724.649 625.845 723.801L625.845 723.801L625.845 723.801C627.841 721.238 629.853 718.656 630.928 715.749C633.035 710.049 636.256 704.629 642.155 705.423C648.978 706.342 650.271 713.729 650.909 719.499C656.707 771.928 664.758 824.024 672.81 876.126L672.81 876.126C674.808 889.053 676.806 901.981 678.769 914.913C681.369 932.023 684.381 956.598 682.361 967.05C682.219 967.792 682.136 968.523 682.058 969.222C681.749 971.958 681.496 974.21 677.906 974.75C673.034 975.484 670.831 972.66 670.233 968.28C667.913 951.274 667.273 944.747 666.275 918.735C665.308 893.519 660.569 868.665 655.83 843.816L655.83 843.815C654.111 834.8 652.392 825.785 650.853 816.753C645.613 785.996 640.483 754.802 640.022 719.777C639.326 720.808 638.644 721.825 637.974 722.826C630.426 734.096 624.264 743.295 613.48 746.877C595.58 752.827 579.917 748.422 567.371 734.277C553.071 718.155 543.783 699.808 538.558 678.498C530.244 644.587 528.704 611.368 539.487 577.853C544.655 561.774 563.189 533.208 581.684 535.824ZM616.346 663.326C620.717 666.467 624.679 669.316 628.334 657.948C627.158 615.652 613.6 588.654 592.472 587.632C603.747 602.197 614.559 616.413 615.472 636.132C610.742 633.978 607.7 630.59 604.784 627.342C602.753 625.08 600.784 622.886 598.348 621.226C597.31 620.519 596.295 619.736 595.271 618.946C590.544 615.301 585.636 611.516 577.471 614.357C581.301 620.187 586.575 624.302 591.799 628.377C597.832 633.084 603.798 637.738 607.392 644.919C596.777 652.561 592.209 662.62 597.718 674.761C602.497 685.296 609.565 694 623.565 694.635C623.043 688.311 618.868 683.708 614.812 679.235C609.879 673.796 605.121 668.55 607.316 660.635C610.515 659.134 613.516 661.291 616.346 663.326Z" fill="black"/>
<path d="M1479.34 1609.34H360.01L184.066 1606.95C184.066 1606.95 209.831 1370.2 220.74 1338.62C246.881 1262.96 273.289 1171.15 341.162 1126.25C370.762 1106.67 394.456 1089.31 396.379 1078.73C397.352 1073.39 494.2 979.026 511.722 969.463C595.242 923.882 676.471 951.091 676.471 951.091L677.371 969.858C677.371 969.858 679.292 992.558 684.259 999.315C707.001 1030.27 785.626 1049.72 838.444 1053.97C904.661 1059.29 976.944 1029.31 979.105 1007.29C980.796 990.049 957.724 958.766 990.926 945.67C1016.48 935.593 1092.45 941.996 1119 952.291C1153.15 965.535 1218.06 1005.78 1249.28 1045.69C1261.5 1061.31 1263.99 1105.22 1305.6 1118.06C1367.6 1137.21 1415.19 1226.76 1440.9 1338.62C1454.04 1395.77 1479.34 1609.34 1479.34 1609.34Z" fill="white"/>
<path d="M1138.96 1609H1023.87L1028.74 1420.31C1028.74 1420.31 1031.18 1155.02 1023.87 1064.46C1021.54 1035.53 1003.64 994.986 991.964 1006.66C923.608 1075.02 828.314 1060.51 819.67 1061.32C796.37 1063.51 758.02 1053.68 713.798 1033.21C701.385 1027.46 673.038 993.436 673.038 993.436C673.038 993.436 631.314 1054.14 628.738 1115.31C624.505 1215.83 633.559 1383.7 636.687 1453.43C639.593 1518.24 641.221 1609 641.221 1609H526.156C526.156 1609 544.619 1289.4 526.156 1109.41C518.282 1032.66 403.534 1100.3 407.324 1074.01C414.339 1025.36 513.691 955.566 564.766 941.811C584.937 936.378 674.476 947.699 674.476 947.699C674.476 947.699 679.676 998.938 702.939 1018.49C712.966 1026.92 760.128 1049.06 807.806 1054.36C863.193 1060.52 921.312 1048.18 954.639 1031.58C998.862 1009.55 937.381 983.566 977.178 956.449C1016.76 929.476 1039.26 939.749 1070.02 940.723C1165.39 943.742 1279.26 1072.15 1261.87 1078.05C1236.72 1086.58 1141.6 1045.17 1131.43 1117.51C1116.99 1220.23 1138.96 1609 1138.96 1609Z" fill="black"/>
<path d="M1473.02 1609C1466.78 1587.73 1461.53 1535.69 1458.12 1507.01C1455.66 1486.35 1438.47 1340.53 1419.56 1289.62C1407.99 1258.46 1397.23 1226.56 1380.13 1197.46C1368.42 1177.53 1350.81 1163.19 1334.06 1148.6C1313.4 1130.6 1290.59 1114.94 1267.12 1100.39C1236.21 1081.22 1203.66 1077.31 1169.49 1088.67C1158.34 1092.39 1150.85 1100.22 1147.62 1113.02C1134.17 1166.34 1138.46 1220.59 1137.81 1274.57C1136.98 1344.37 1140.91 1414.06 1143.04 1483.8C1144.78 1541.04 1142.9 1550.54 1142.39 1609C1137.4 1609 1133.39 1609 1127.91 1609C1127 1576.83 1127.51 1593.66 1127.33 1561.49C1127.05 1513.93 1126.51 1466.37 1125.69 1418.81C1125.1 1380.98 1125.39 1343.06 1122.92 1305.33C1120.32 1265.69 1120.19 1226.18 1123.62 1186.73C1126.07 1158.52 1123.73 1129.73 1134.93 1102.41C1144.33 1079.46 1163.21 1070.59 1184.8 1068.95C1207.18 1067.25 1230.48 1064.07 1254.57 1078.2C1249.8 1061.58 1239.61 1053.48 1231.95 1044.13C1203.93 1009.99 1166.51 988.684 1128.45 967.449C1089.08 945.485 1047.67 948.408 1005.78 950.031C999.278 950.283 993.702 953.755 988.001 956.731C980.485 960.65 972.666 963.961 961.353 961.531C970.878 948.562 983.538 944.175 996.538 940.391C1033.61 929.601 1069.52 935.246 1092.19 938.61C1121.05 942.894 1220.66 990.92 1267.68 1066.5C1290.02 1102.4 1353.48 1102.9 1411.33 1224.05C1426.68 1256.2 1437.45 1290.42 1445.99 1324.83C1456.9 1368.83 1485.49 1577.39 1485.49 1609C1481.18 1609 1477.64 1609 1473.02 1609Z" fill="black"/>
<path d="M193.261 1609C195.284 1602.11 195.953 1599.1 196.902 1593.29C201.546 1564.86 202.368 1535.69 205.777 1507.01C208.231 1486.35 209.091 1465.59 211.884 1444.92C218.992 1392.32 227.393 1340.04 244.334 1289.62C254.986 1257.92 266.67 1226.56 283.765 1197.46C295.471 1177.53 313.09 1163.19 329.831 1148.6C350.493 1130.6 373.309 1114.94 396.771 1100.39C427.688 1081.22 460.234 1077.31 494.409 1088.67C505.56 1092.39 513.047 1100.22 516.275 1113.02C529.72 1166.34 525.438 1220.59 526.084 1274.57C526.919 1344.37 522.984 1414.06 520.858 1483.8C519.114 1541.04 521.428 1608.83 521.428 1608.83C521.428 1608.83 530.483 1608.99 535.969 1608.99C536.877 1576.83 536.385 1593.66 536.569 1561.49C536.845 1513.93 537.389 1466.37 538.202 1418.81C538.794 1380.98 538.502 1343.06 540.976 1305.33C543.576 1265.69 543.706 1226.18 540.276 1186.73C537.821 1158.52 540.161 1129.73 528.965 1102.41C519.565 1079.46 500.683 1070.59 479.095 1068.95C456.714 1067.25 433.413 1064.07 409.32 1078.2C414.096 1061.58 424.284 1053.48 431.948 1044.13C459.963 1009.99 497.389 988.683 535.448 967.448C574.817 945.484 616.223 948.407 658.112 950.03C664.617 950.282 670.193 953.754 675.893 956.73C683.41 960.649 678.236 968.171 682.345 957.355C688.058 942.313 680.357 944.178 667.357 940.394C630.289 929.604 593.215 936.425 556.246 940.947C548.877 941.847 541.498 945.318 534.834 948.918C483.408 976.7 418.729 1026.13 396.212 1066.5C384.191 1088.05 365.46 1099.27 348.712 1114.16C288.953 1167.3 273.27 1178.82 252.555 1224.06C237.725 1256.44 226.436 1290.42 217.902 1324.84C206.993 1368.83 198.761 1413.42 195.067 1458.96C192.433 1491.43 187.742 1523.84 184.784 1556.4C182.712 1579.2 181.258 1596.15 181.258 1609C185.014 1609 188.639 1609 193.261 1609Z" fill="black"/>
<path d="M1309.79 1609C1311.79 1585.29 1301.86 1524.28 1297.33 1493.27C1294.03 1470.69 1294.3 1447.39 1285.87 1425.59C1283.78 1420.19 1284.44 1413.21 1291.19 1412.09C1297.64 1411.02 1300.45 1415.57 1301.93 1422.88C1309.7 1461.22 1313.2 1500.11 1317.85 1538.83C1321.45 1568.8 1325.74 1598.94 1326.38 1608.92C1320.54 1609 1316.14 1609 1309.79 1609Z" fill="black"/>
<path d="M371.285 1609C372.728 1585.44 379.338 1524.28 383.87 1493.27C387.17 1470.69 386.895 1447.39 395.33 1425.59C397.421 1420.19 396.76 1413.21 390.009 1412.09C383.553 1411.02 380.747 1415.57 379.265 1422.88C371.495 1461.22 367.997 1500.11 363.345 1538.83C359.745 1568.8 357.557 1609 357.557 1609C357.557 1609 364.938 1609 371.285 1609Z" fill="black"/>
<path d="M1021.73 1609.34L644.248 1609C644.248 1609 630.734 1174.7 630.734 1085.36C630.734 1011.42 667.273 930.605 682.702 954.709C711.168 999.184 759.213 1009.77 831.706 1013C946.73 1018.11 953.283 975.059 968.958 966.166C1000.44 948.303 1021.73 1022.6 1021.73 1099.27C1021.73 1204.5 1021.73 1609.34 1021.73 1609.34Z" fill="white"/>
<path d="M645.36 1609.34C645.36 1609.34 630.734 1181.76 630.734 1093.86C630.734 1021.11 667.273 930.993 682.702 954.708C711.168 998.465 759.901 1013.06 832.395 1016.24C947.418 1021.27 953.283 974.915 968.958 966.165C1000.44 948.591 1021.73 1032.12 1021.73 1107.55C1021.73 1175.46 1021.73 1609 1021.73 1609" stroke="black" stroke-width="15"/>
<mask id="mask0_9_3923" style="mask-type:alpha" maskUnits="userSpaceOnUse" x="623" y="943" width="407" height="667">
<path d="M645.36 1609.34C645.36 1609.34 630.734 1181.76 630.734 1093.86C630.734 1021.11 667.273 930.993 682.702 954.708C711.168 998.465 759.901 1013.06 832.395 1016.24C947.418 1021.27 953.283 974.915 968.958 966.165C1000.44 948.591 1021.73 1032.12 1021.73 1107.55C1021.73 1175.46 1021.73 1609 1021.73 1609" fill="white"/>
<path d="M645.36 1609.34C645.36 1609.34 630.734 1181.76 630.734 1093.86C630.734 1021.11 667.273 930.993 682.702 954.708C711.168 998.465 759.901 1013.06 832.395 1016.24C947.418 1021.27 953.283 974.915 968.958 966.165C1000.44 948.591 1021.73 1032.12 1021.73 1107.55C1021.73 1175.46 1021.73 1609 1021.73 1609" stroke="white" stroke-width="15"/>
</mask>
<g mask="url(#mask0_9_3923)">
<path d="M888.853 1432.71C888.7 1432.73 888.549 1432.77 888.403 1432.82L888.589 1432.79L888.853 1432.71Z" fill="black"/>
<path d="M996.259 1417.97C993.318 1407.92 988.963 1398.35 983.324 1389.53C976.101 1377.83 967.785 1366.85 958.487 1356.72C939.06 1336.23 917.041 1318.32 893.849 1302.28C877.137 1290.62 859.057 1281.12 840.687 1272.37C819.787 1261.97 797.446 1254.01 774.146 1251.45C762.032 1250.52 749.848 1251.27 737.939 1253.67C748.934 1254.66 759.838 1256.49 770.553 1259.15C785.442 1263.14 803.819 1270.7 819.928 1277.23C840.419 1286.21 860.644 1295.99 879.733 1307.69C909.256 1326.75 933.225 1345.66 956.486 1370.47C968.876 1384.77 976.962 1395.44 984.931 1411.01C988.624 1419.09 991.293 1427.59 992.877 1436.33C993.669 1442.43 993.603 1441.31 993.705 1444.88C993.705 1445.34 993.676 1445.8 993.656 1446.25C993.563 1447.22 993.439 1448.19 993.263 1449.14L993.251 1449.21C990.677 1460.67 984.451 1469.02 974.105 1476.5C947.753 1493.53 921.045 1502.17 889.831 1500.81C869.256 1500.02 848.101 1494.83 830.988 1490.11C809.793 1484.36 789.13 1476.8 769.223 1467.52C752.228 1459.52 735.671 1450.3 720.958 1438.56C704.317 1425.25 689.894 1413.89 675.902 1395.88C666.819 1384.07 661.562 1376.75 656.102 1362.98C655.823 1362.12 655.544 1361.27 655.266 1360.42C653.747 1355.03 654.344 1357.92 653.611 1352.15C653.769 1348.65 652.827 1344.14 656.002 1338.85C660.854 1330.31 674.292 1319.41 689.348 1314.74C696.722 1312.47 710.973 1310.22 721.848 1310.09C729.843 1309.95 737.777 1311.32 745.654 1312.55C761.431 1315.32 774.413 1319.4 790.439 1326C805.093 1331.96 819.393 1338.75 833.266 1346.36C862.413 1363 896.325 1388.62 903.721 1413.76C903.859 1414.31 903.996 1414.85 904.134 1415.4C904.149 1415.47 904.162 1415.54 904.177 1415.61C904.417 1416.84 904.592 1418.09 904.703 1419.34C904.703 1419.44 904.713 1419.54 904.712 1419.64C904.707 1419.84 904.703 1420 904.7 1420.15C904.646 1420.55 904.581 1420.96 904.525 1421.28C904.419 1421.71 904.295 1422.14 904.155 1422.57C902.709 1426.63 897.127 1430.15 888.855 1432.7C889.14 1432.65 889.273 1432.67 888.631 1432.78L888.591 1432.79C888.479 1432.82 888.371 1432.86 888.258 1432.89C888.305 1432.86 888.354 1432.84 888.405 1432.82C883.028 1433.89 877.56 1434.44 872.078 1434.47C862.587 1434.62 853.211 1432.94 844.012 1430.74C837.784 1429.31 831.674 1427.41 825.734 1425.06C818.96 1422.16 812.367 1418.86 805.991 1415.17C797.591 1410.78 783.017 1400.4 779.122 1396.85C773.246 1391.77 767.451 1386.47 762.793 1380.23C760.777 1377.23 759.943 1376.1 758.937 1372.54C758.955 1372.4 758.972 1372.27 758.987 1372.15C759.031 1372 759.076 1371.84 759.126 1371.68C759.166 1371.59 759.212 1371.49 759.271 1371.36L759.341 1371.23C759.686 1370.77 760.058 1370.32 760.454 1369.91C760.629 1369.71 760.754 1369.58 760.836 1369.5C760.924 1369.43 761.006 1369.35 761.095 1369.29C763.896 1367.41 766.958 1365.96 770.182 1364.98C774.152 1363.86 778.257 1363.29 782.382 1363.28C796.514 1363.56 806.825 1366.25 819.09 1370.93C822.066 1372.15 824.996 1373.5 827.851 1374.99C824.347 1371.87 820.633 1368.99 816.736 1366.37C803.915 1358.2 787.59 1350.77 772.086 1352.24C759.671 1353.92 752.241 1358.88 751.968 1372.27C751.782 1384.43 760.127 1394.51 768.476 1402.48C774.797 1408.52 781.58 1414.06 788.763 1419.05C799.515 1426.43 810.92 1432.8 822.835 1438.1C830.522 1441.15 838.449 1443.55 846.535 1445.29C856.135 1447.51 865.976 1448.9 875.845 1448.32C882.534 1447.96 889.322 1447.18 895.521 1444.49C920.581 1434.76 912.102 1402.5 899.285 1385.81C889.485 1371.71 876.085 1360.69 862.404 1350.53C846.575 1338.66 829.175 1329.09 811.257 1320.78C797.321 1314.45 783.219 1308.33 768.528 1303.97C755.63 1300.16 742.395 1297.6 729.006 1296.32C721.237 1295.89 713.445 1296.26 705.753 1297.43C690.304 1299.27 674.921 1304.43 663.164 1314.92C657.755 1319.24 653.309 1324.63 650.114 1330.77C646.683 1338.2 646.262 1346.65 646.804 1354.7C648.386 1373.28 658.671 1389.82 669.665 1404.38C678.493 1416.51 689.124 1427.14 700.556 1436.81C711.856 1446.31 723.156 1455.95 735.696 1463.8C761.223 1479.8 789.267 1491.51 818.007 1500.37C846.448 1508.71 875.751 1516.47 905.645 1514.64C923.98 1513.43 941.845 1508 958.352 1500.04C966.419 1495.89 974.597 1491.68 981.478 1485.68C992.047 1476.57 998.807 1463.82 1000.42 1449.96C1001.41 1439.16 999.127 1428.34 996.259 1417.97Z" fill="black"/>
<path d="M848.611 1389.77C850.594 1396.49 852.179 1400.56 845.233 1402.19C839.825 1403.33 834.246 1402.69 828.767 1402.62C828.032 1402.61 827.689 1402.51 828.627 1402.94C831.659 1404.49 834.859 1405.7 838.164 1406.53C850.783 1409.72 855.82 1399.69 848.611 1389.77Z" fill="black"/>
<path d="M998.798 1521.9C994.072 1524.42 988.924 1526.01 983.854 1527.7C975.719 1530.2 971.192 1531.39 962.647 1533.3C943.448 1537.11 923.881 1538.76 904.314 1538.2C881.684 1537.22 859.252 1533.54 837.49 1527.26C819.556 1522.24 791.807 1515.49 765.231 1504.98C763.304 1504.22 761.382 1503.45 759.465 1502.68C777.938 1513.1 796.612 1523.22 815.818 1532.23C833.266 1540.61 852 1545.81 871.096 1548.75C889.804 1551.94 908.82 1552.95 927.761 1551.74C938.135 1551.06 948.592 1550.14 958.661 1547.45C972.401 1543.62 985.848 1538.04 997.699 1530.05C1006.36 1523.71 1012.75 1514.95 1019.1 1506.44C1012.53 1512.09 1006.52 1517.65 998.798 1521.9Z" fill="black"/>
<path d="M977.542 1315.26C976.128 1314.5 974.735 1313.7 973.342 1312.91C975.813 1315.2 978.198 1317.58 980.56 1319.99C989.786 1329.3 998.14 1339.43 1005.52 1350.26C1015.8 1364.28 1021.65 1374.31 1031.07 1391.26C1022.47 1360.25 1008 1329.77 977.542 1315.26Z" fill="black"/>
<path d="M604.635 1319.95C609.852 1311.58 623.501 1295.1 633.681 1288.55C642.266 1282.64 651.36 1277.03 661.418 1274.06C666.687 1272.48 675.908 1271.77 682.601 1271.62C674.901 1269.74 667.001 1267.9 659.023 1268.73C648.757 1269.92 638.876 1273.88 629.928 1278.95C616.277 1286.96 605.943 1299.57 597.933 1313.02C590.277 1326.58 586.807 1342.45 587.008 1357.96C587.794 1377.6 594.901 1396.51 605.314 1413.03C616.131 1429.23 629.664 1443.41 643.373 1457.17C648.327 1462.07 653.341 1466.91 658.417 1471.68C652.984 1465.36 647.706 1458.91 642.582 1452.32C632.015 1438.76 622.163 1424.66 613.067 1410.07C598.556 1386.6 591.94 1366.43 594.584 1347.55C596.295 1337.36 597.621 1331.49 604.635 1319.95Z" fill="black"/>
<path fill-rule="evenodd" clip-rule="evenodd" d="M720.666 1509.14C718.898 1506.07 716.969 1503.1 714.887 1500.23C714.701 1499.98 714.509 1499.74 714.317 1499.5L714.317 1499.5L714.317 1499.5C714.149 1499.29 713.981 1499.08 713.815 1498.87C714.265 1498.02 714.745 1497.18 715.225 1496.35C716.479 1494.16 717.735 1491.97 718.47 1489.56C719.264 1486.07 719.289 1481.36 716.157 1479.03C714.737 1478.57 713.208 1478.58 711.795 1479.06C709.319 1479.62 706.896 1480.4 704.555 1481.39C703.136 1481.96 701.738 1482.58 700.355 1483.23C693.65 1476.16 686.56 1469.47 679.117 1463.18C678.601 1462.79 678.104 1462.36 677.605 1461.93L677.605 1461.93L677.605 1461.93C676.533 1461.01 675.456 1460.08 674.179 1459.5C670.725 1458.14 669.16 1462.66 668.86 1465.34C668.321 1471.73 669.711 1478.09 671.075 1484.32L671.075 1484.32L671.075 1484.32L671.075 1484.32C671.184 1484.82 671.293 1485.32 671.401 1485.82C672.475 1490.14 673.737 1494.41 675.101 1498.64C673.751 1499.58 672.402 1500.51 671.054 1501.43L670.406 1501.89L670.406 1501.89C667.111 1504.22 663.815 1506.54 660.581 1508.95C657.546 1511.21 654.17 1513.78 653.552 1517.77C652.866 1521.3 653.126 1526.05 656.452 1528.16C660.117 1529.44 664.033 1529.75 667.903 1530.04C668.704 1530.11 669.504 1530.17 670.298 1530.24C675.608 1530.57 680.933 1530.6 686.246 1530.33C688.607 1537 690.969 1543.67 693.567 1550.26C693.849 1551.17 694.309 1552.01 694.92 1552.74C694.214 1551.48 693.94 1550.07 693.666 1548.67L693.666 1548.67L693.666 1548.67L693.666 1548.67C693.546 1548.05 693.427 1547.44 693.271 1546.84C692.797 1544.66 692.32 1542.47 691.843 1540.29L691.843 1540.29L691.842 1540.29L691.842 1540.29L691.842 1540.28L691.841 1540.28L691.841 1540.28C691.103 1536.9 690.366 1533.53 689.637 1530.15C691.681 1530.01 693.724 1529.86 695.764 1529.68C694.594 1534.34 693.692 1539.06 693.064 1543.82C694.488 1538.93 696.205 1534.14 698.204 1529.45C700.699 1529.21 703.19 1528.95 705.678 1528.67C706.711 1528.55 707.745 1528.44 708.78 1528.32L708.78 1528.32L708.78 1528.32L708.783 1528.32L708.783 1528.32L708.783 1528.32L708.783 1528.32C711.388 1528.03 713.995 1527.75 716.578 1527.29C717.808 1527.09 719.008 1526.74 720.154 1526.25C721.24 1525.49 722.087 1524.44 722.595 1523.22C724.691 1518.55 723.417 1513.24 720.666 1509.14ZM676.734 1476.21C681.467 1480.12 685.995 1484.27 690.299 1488.64C687.12 1490.55 684.007 1492.58 680.928 1494.66C679.223 1487.93 677.691 1481.51 676.734 1476.21ZM679.182 1510.56C676.38 1512.44 673.601 1514.36 670.847 1516.31V1516.31C674.334 1516.51 677.825 1516.58 681.318 1516.53C680.604 1514.54 679.892 1512.55 679.182 1510.56ZM686.506 1516.37C685.773 1513.42 684.983 1510.35 684.175 1507.23C685.741 1506.2 687.31 1505.17 688.881 1504.15C692.006 1502.24 695.673 1500.03 699.364 1497.98C701.025 1499.78 702.752 1501.72 704.435 1503.69C703.691 1505.56 702.957 1507.44 702.262 1509.33C701.497 1511.32 700.773 1513.33 700.07 1515.35C695.553 1515.81 691.032 1516.17 686.506 1516.37V1516.37ZM706.256 1512.89C705.921 1513.53 705.595 1514.16 705.273 1514.78V1514.78C707.696 1514.49 710.114 1514.19 712.527 1513.88C711.404 1512.3 710.042 1510.51 708.527 1508.62C708.341 1508.97 708.154 1509.32 707.967 1509.66C707.394 1510.74 706.82 1511.81 706.256 1512.89Z" fill="black"/>
<path fill-rule="evenodd" clip-rule="evenodd" d="M966.477 1243.74C965.256 1241.78 963.463 1240.24 961.341 1239.33C958.712 1237.99 956.041 1236.72 953.366 1235.49C953.587 1221.56 953.584 1207.62 952.977 1193.7C952.746 1191.78 951.853 1188.3 949.303 1189.13C947.793 1190.39 946.749 1192.27 945.727 1194.11C945.204 1195.05 944.687 1195.98 944.116 1196.82C938.873 1205.67 932.744 1214.48 926.156 1223.52C916.589 1219.43 906.947 1215.53 897.194 1211.91C893.035 1210.37 888.871 1208.85 884.667 1207.44C884.053 1207.29 883.426 1207.07 882.793 1206.85C881.039 1206.23 879.237 1205.6 877.515 1206.41C873.247 1209.69 873.715 1216.58 875.789 1221.02C878.339 1225.7 882.006 1229.66 885.613 1233.54L885.783 1233.73C891.218 1239.46 897.017 1244.84 902.866 1250.15C903.361 1250.6 903.859 1251.04 904.356 1251.49C904.737 1251.83 905.118 1252.17 905.498 1252.51C901.365 1255.09 897.227 1257.66 893.086 1260.22C892.2 1260.82 891.273 1261.37 890.344 1261.92C888.351 1263.1 886.35 1264.29 884.733 1265.92C883.436 1267.94 883.455 1270.54 884.781 1272.54C885.466 1273.14 886.379 1273.4 887.274 1273.25C888.817 1273.21 890.355 1273.05 891.874 1272.77C897.013 1271.93 902.095 1270.79 907.176 1269.65L907.176 1269.65L907.176 1269.65L907.176 1269.65C908.883 1269.27 910.59 1268.89 912.298 1268.52L921.18 1266.52C924.537 1269.49 927.899 1272.45 931.267 1275.42C931.998 1275.98 932.873 1276.75 933.844 1277.61C938.025 1281.32 943.995 1286.62 948.017 1283.16C951.392 1279.95 951.774 1275 952.124 1270.47C952.184 1269.69 952.244 1268.92 952.317 1268.18C952.51 1265.33 952.652 1262.48 952.767 1259.63C954.843 1259.22 956.921 1258.81 959.001 1258.42C959.462 1258.3 959.933 1258.21 960.405 1258.11C961.818 1257.82 963.247 1257.53 964.49 1256.81C968.413 1253.93 968.304 1247.83 966.477 1243.74ZM946.471 1230.99V1230.99L946.452 1232.35C943.364 1230.98 940.27 1229.62 937.169 1228.28C939.149 1226.36 941.037 1224.35 942.832 1222.27C939.906 1223.63 937.102 1225.25 934.449 1227.09C933.83 1226.82 933.211 1226.55 932.591 1226.28C931.891 1225.97 931.189 1225.67 930.487 1225.37L930.486 1225.37L930.485 1225.37C930.004 1225.17 929.524 1224.96 929.045 1224.75C935.51 1218.63 941.515 1212.04 947.011 1205.03C946.725 1212.4 946.599 1221.61 946.471 1230.99ZM891.47 1223.93C893.67 1226.2 895.864 1228.37 897.67 1230.03C905.972 1237.82 914.448 1245.42 922.976 1252.96C925.733 1252.11 928.502 1251.29 931.291 1250.54C936.218 1249.17 941.207 1248.05 946.207 1247.02C946.208 1246.96 946.21 1246.91 946.211 1246.86L946.211 1246.86C946.215 1246.74 946.218 1246.62 946.218 1246.49C940.488 1243.9 934.691 1241.44 928.9 1238.97L928.899 1238.97L928.899 1238.97C927.726 1238.48 926.552 1237.98 925.379 1237.48C923.583 1238.57 921.726 1239.56 919.816 1240.44C920.951 1239.13 922.134 1237.86 923.34 1236.61C921.678 1235.9 920.021 1235.18 918.368 1234.46L918.345 1234.45C918.249 1234.53 918.153 1234.62 918.057 1234.7C917.905 1234.83 917.752 1234.97 917.597 1235.1C917.719 1234.94 917.838 1234.78 917.958 1234.61L917.958 1234.61L917.959 1234.61L918.143 1234.37C909.313 1230.75 900.453 1227.16 891.47 1223.93ZM896.585 1262.38C899.799 1259.31 902.969 1256.2 906.096 1253.04C907.603 1254.4 909.112 1255.76 910.624 1257.11C905.918 1258.79 901.243 1260.56 896.585 1262.38ZM935.008 1263.44L934.907 1263.46C935.529 1264.01 936.152 1264.55 936.776 1265.1C937.047 1265.29 937.399 1265.6 937.83 1265.97C939.259 1267.2 941.548 1269.17 944.545 1270.36C944.705 1270.38 944.867 1270.39 945.028 1270.4C945.326 1267.83 945.556 1264.67 945.738 1261.08C942.158 1261.85 938.583 1262.64 935.008 1263.44Z" fill="black"/>
</g>
<path d="M654.962 299.775C686.676 271.046 721.433 250.369 761.115 235.261C796.146 221.923 830.944 218.696 867.244 218.836C907.769 218.992 941.744 237.446 979.584 250.72C1036.99 270.859 1155.73 376.778 1121.08 513.001C1116.5 531.01 1113.53 548.822 1108.29 565.833C1101.36 588.295 1105.07 609.109 1106.75 631.033C1110.54 680.726 1152.83 744.944 1158.32 794.233C1162.15 828.751 1164.48 862.843 1159.02 897.025C1154.57 924.852 1137.36 967.943 1129.14 994.45C1123.62 1012.26 1089.66 998.504 1074.77 1011.79C1069.48 1009.73 1068.26 1007.16 1067.61 1002.72C1065.01 984.987 1070.76 969.464 1077.95 953.821C1083.9 940.896 1085.46 926.412 1089.76 912.666C1080.47 929.671 1071.18 946.674 1061.88 963.676C1060.86 965.542 1059.78 967.384 1058.61 969.16C1048.69 984.249 1044.58 985.648 1028.46 978.341C1013.47 971.541 999.581 962.541 984.087 956.625C979.731 954.961 975.76 953.135 970.998 952.651C957.733 951.302 952.368 940.308 946.218 930.812C944.078 927.506 947.572 925.124 950.361 922.712C967.219 908.145 987.087 897.897 1006.43 887.953C1036.45 872.522 1051.15 846.384 1064.24 818.17C1077.36 789.886 1083.43 759.482 1088.22 728.981C1093.25 697.024 1088.89 664.873 1087.11 632.881C1085.91 611.251 1082.25 589.752 1090.5 568.651C1091.51 566.067 1091.28 562.62 1090.61 559.815C1083.32 529.256 1077.35 498.388 1074.53 467.155C1071.78 436.655 1030.69 316.555 958.202 364.473C936.748 378.654 928.126 395.799 911.619 426.74C893.68 460.362 867.533 485.452 834.931 504.465C817.359 514.713 799.331 524.95 779.703 529.303C756.189 534.519 732.877 541.455 708.573 543.133C691.795 544.291 677.717 552.502 665.382 563.247C640.918 584.557 645.476 607.932 665.923 635.68C689.902 668.22 710.993 702.834 717.098 742.299C722.262 775.676 723.469 810.462 711.412 844.473C704.425 864.182 694.5 882.034 686.13 900.832C675.189 925.402 677.882 950.339 688.303 975.585C656.648 995.396 623.387 990.048 589.141 984.985C590.786 994.475 583.493 994.369 576.349 994.016C548.41 992.635 520.232 992.729 493.87 981.124C492.01 980.305 489.059 979.262 487.87 980.101C482.545 983.859 460.162 997.464 424.995 943.501C410.874 921.829 407.441 897.414 408.295 872.817C409.119 849.168 412.444 825.432 416.723 802.111C427.44 743.711 455.163 693.284 492.823 648.105C518.387 617.435 536.373 582.886 541.858 543.547C545.14 520.01 546.991 496.462 553.058 473.255C565.208 426.775 583.903 383.97 613.958 345.917C626.612 329.88 638.997 313.938 654.962 299.775Z" fill="black"/>
<path d="M863.994 775.906C867.699 766.256 874.551 765.093 877.094 773.678C885.461 801.87 907.458 813.797 932.41 822.615C927.225 832.915 916.889 833.939 904.354 828.003C882.254 817.536 871.575 798.513 863.994 775.906Z" fill="black"/>
<path d="M972.459 711.036C977.529 695.365 966.48 684.736 962.076 672.512C953.52 648.769 945.87 625.105 947.089 599.474C947.306 594.906 946.389 588.774 953.077 588.936C958.214 589.062 960.977 594.11 961.177 598.948C962.666 634.448 975.602 666.571 990.105 698.238C992.838 704.204 992.214 709.323 988.984 715.091C980.513 730.218 966.653 735.136 950.794 735.623C942.077 735.891 935.861 731.096 932.621 720.395C946.624 718.56 961.965 725.186 972.459 711.036Z" fill="black"/>
<path d="M875.968 556.108C893.429 567.268 905.208 581.835 911.14 600.795C926.94 597.738 941.833 595.002 957.458 602.995C962.207 590.136 967.858 578.353 977.343 568.333C992.819 551.986 1027.98 539.902 1053.54 548.487C1079.75 557.292 1098.38 574.679 1106.18 599.65C1113.33 622.541 1109.86 646.164 1094.9 667.492C1059.1 718.521 984.577 704.992 962.471 653.547C958.927 645.347 956.804 636.604 956.192 627.692C955.565 617.204 950.864 611.948 941.185 610.434C929.307 608.577 920.043 612.247 915.761 624.27C912.5 633.423 912.591 643.355 908.409 652.476C895.075 681.557 870.528 699.905 836.636 699.619C808.131 699.379 775.18 681.699 767.536 650.756C759.167 616.856 732.114 609.49 705.206 600.209C682.406 592.345 659.701 584.209 636.981 576.121C632.338 574.468 629.689 570.847 631.507 566.165C633.688 560.549 638.262 562.79 642.293 564.26C676.446 576.711 710.681 588.944 744.727 601.681C756.453 606.069 763.15 598.512 767.267 591.036C790.627 548.615 825.718 535.526 870.385 553.756C871.965 554.397 873.565 554.979 875.968 556.108Z" fill="black"/>
<path d="M802.904 601.471C802.076 601.171 803.934 601.533 802.821 601.871C796.19 603.854 853.511 654.692 858.573 650.379C861.504 647.875 809.052 604.053 802.904 601.471Z" fill="white"/>
<path d="M823.256 577.693C822.428 577.393 824.286 577.755 823.173 578.093C816.541 580.075 873.863 630.913 878.925 626.601C881.859 624.097 829.404 580.275 823.256 577.693Z" fill="white"/>
<path d="M998.218 601.471C997.389 601.171 999.248 601.533 998.135 601.871C991.503 603.854 1048.82 654.692 1053.89 650.379C1056.82 647.875 1004.37 604.053 998.218 601.471Z" fill="white"/>
<path d="M1018.57 577.693C1017.75 577.393 1019.6 577.755 1018.49 578.093C1011.86 580.075 1069.18 630.913 1074.24 626.601C1077.18 624.097 1024.73 580.275 1018.57 577.693Z" fill="white"/>
<path d="M827.482 552.562C837.911 548.017 847.238 541.279 854.83 532.807C857.549 529.76 860.906 527.069 864.661 527.723C871.427 528.902 880.888 526.897 883.461 535.264C885.63 542.308 878.284 545.764 873.179 549.664C859.365 560.208 845 568.671 826.597 566.435C821.963 565.871 816.911 566.649 815.506 560.209C817.182 554.698 822.896 555.345 827.482 552.562Z" fill="black"/>
<path d="M1025.42 530.056C1033.89 528.349 1038 534.131 1042.53 538.228C1050.65 545.565 1057.24 554.618 1068.51 557.972C1071.81 558.955 1074.22 561.972 1072.46 566.057C1070.98 569.503 1068.42 571.699 1064.41 570.622C1050.19 566.793 1035.33 564.746 1023.91 553.816C1013.81 544.15 1013.68 539.796 1025.42 530.056Z" fill="black"/>
</svg>
